<?xml version="1.0" encoding="UTF-8"?><svg xmlns="http://www.w3.org/2000/svg" xmlns:xlink="http://www.w3.org/1999/xlink" fill-opacity="1" color-rendering="auto" color-interpolation="auto" text-rendering="auto" stroke="black" stroke-linecap="square" width="816" stroke-miterlimit="10" shape-rendering="auto" stroke-opacity="1" fill="black" stroke-dasharray="none" font-weight="normal" stroke-width="1" height="745" font-family="'Dialog'" font-style="normal" stroke-linejoin="miter" font-size="12px" stroke-dashoffset="0" image-rendering="auto">
  <!--Generated by ySVG 2.6-->
  <defs id="genericDefs"/>
  <g>
    <defs id="defs1">
      <linearGradient x1="506.5" gradientUnits="userSpaceOnUse" x2="633.5" y1="234" y2="299" id="linearGradient1" spreadMethod="reflect">
        <stop stop-opacity="1" stop-color="rgb(232,238,247)" offset="0%"/>
        <stop stop-opacity="1" stop-color="rgb(183,201,227)" offset="100%"/>
      </linearGradient>
      <linearGradient x1="296.5" gradientUnits="userSpaceOnUse" x2="423.5" y1="234" y2="299" id="linearGradient2" spreadMethod="reflect">
        <stop stop-opacity="1" stop-color="rgb(232,238,247)" offset="0%"/>
        <stop stop-opacity="1" stop-color="rgb(183,201,227)" offset="100%"/>
      </linearGradient>
      <linearGradient x1="296.5" gradientUnits="userSpaceOnUse" x2="423.5" y1="68.3765" y2="133.3765" id="linearGradient3" spreadMethod="reflect">
        <stop stop-opacity="1" stop-color="rgb(232,238,247)" offset="0%"/>
        <stop stop-opacity="1" stop-color="rgb(183,201,227)" offset="100%"/>
      </linearGradient>
      <linearGradient x1="506.5" gradientUnits="userSpaceOnUse" x2="633.5" y1="68.3765" y2="133.3765" id="linearGradient4" spreadMethod="reflect">
        <stop stop-opacity="1" stop-color="rgb(232,238,247)" offset="0%"/>
        <stop stop-opacity="1" stop-color="rgb(183,201,227)" offset="100%"/>
      </linearGradient>
      <linearGradient x1="419.5" gradientUnits="userSpaceOnUse" x2="546.5" y1="-41.6235" y2="23.3765" id="linearGradient5" spreadMethod="reflect">
        <stop stop-opacity="1" stop-color="rgb(232,238,247)" offset="0%"/>
        <stop stop-opacity="1" stop-color="rgb(183,201,227)" offset="100%"/>
      </linearGradient>
      <linearGradient x1="582" gradientUnits="userSpaceOnUse" x2="709" y1="-41.6235" y2="23.3765" id="linearGradient6" spreadMethod="reflect">
        <stop stop-opacity="1" stop-color="rgb(232,238,247)" offset="0%"/>
        <stop stop-opacity="1" stop-color="rgb(183,201,227)" offset="100%"/>
      </linearGradient>
      <linearGradient x1="86.5" gradientUnits="userSpaceOnUse" x2="213.5" y1="234" y2="299" id="linearGradient7" spreadMethod="reflect">
        <stop stop-opacity="1" stop-color="rgb(232,238,247)" offset="0%"/>
        <stop stop-opacity="1" stop-color="rgb(183,201,227)" offset="100%"/>
      </linearGradient>
      <linearGradient x1="-44.5" gradientUnits="userSpaceOnUse" x2="41.5" y1="-116.3765" y2="329" id="linearGradient8" spreadMethod="reflect">
        <stop stop-opacity="1" stop-color="rgb(232,238,247)" offset="0%"/>
        <stop stop-opacity="1" stop-color="rgb(183,201,227)" offset="100%"/>
      </linearGradient>
      <linearGradient x1="-44.5" gradientUnits="userSpaceOnUse" x2="740.5" y1="359" y2="405" id="linearGradient9" spreadMethod="reflect">
        <stop stop-opacity="1" stop-color="rgb(232,238,247)" offset="0%"/>
        <stop stop-opacity="1" stop-color="rgb(183,201,227)" offset="100%"/>
      </linearGradient>
      <linearGradient x1="440" gradientUnits="userSpaceOnUse" x2="526" y1="-221" y2="-156" id="linearGradient10" spreadMethod="reflect">
        <stop stop-opacity="1" stop-color="rgb(232,238,247)" offset="0%"/>
        <stop stop-opacity="1" stop-color="rgb(183,201,227)" offset="100%"/>
      </linearGradient>
      <linearGradient x1="605.5" gradientUnits="userSpaceOnUse" x2="685.5" y1="-221" y2="-156" id="linearGradient11" spreadMethod="reflect">
        <stop stop-opacity="1" stop-color="rgb(232,238,247)" offset="0%"/>
        <stop stop-opacity="1" stop-color="rgb(183,201,227)" offset="100%"/>
      </linearGradient>
      <linearGradient x1="-44.5" gradientUnits="userSpaceOnUse" x2="41.5" y1="-221" y2="-156" id="linearGradient12" spreadMethod="reflect">
        <stop stop-opacity="1" stop-color="rgb(232,238,247)" offset="0%"/>
        <stop stop-opacity="1" stop-color="rgb(183,201,227)" offset="100%"/>
      </linearGradient>
      <clipPath clipPathUnits="userSpaceOnUse" id="clipPath1">
        <path d="M0 0 L816 0 L816 745 L0 745 L0 0 Z"/>
      </clipPath>
      <clipPath clipPathUnits="userSpaceOnUse" id="clipPath2">
        <path d="M-60 -276 L756 -276 L756 469 L-60 469 L-60 -276 Z"/>
      </clipPath>
    </defs>
    <g fill="rgb(235,235,235)" text-rendering="geometricPrecision" shape-rendering="geometricPrecision" transform="matrix(1,0,0,1,60,276)" stroke="rgb(235,235,235)">
      <rect x="71.5" width="669" height="21.666" y="-114.9556" clip-path="url(#clipPath2)" stroke="none"/>
    </g>
    <g font-size="15px" stroke-linecap="butt" transform="matrix(1,0,0,1,60,276)" text-rendering="geometricPrecision" font-family="sans-serif" shape-rendering="geometricPrecision" stroke-miterlimit="1.45">
      <text x="666.1587" xml:space="preserve" y="-98.4536" clip-path="url(#clipPath2)" stroke="none">OPNsense</text>
      <rect x="71.5" y="-114.9556" clip-path="url(#clipPath2)" fill="none" width="669" rx="4" ry="4" height="443.9556"/>
    </g>
    <g fill="rgb(235,235,235)" text-rendering="geometricPrecision" shape-rendering="geometricPrecision" transform="matrix(1,0,0,1,60,276)" stroke="rgb(235,235,235)">
      <rect x="263.5" width="385" height="21.666" y="197.334" clip-path="url(#clipPath2)" stroke="none"/>
    </g>
    <g font-size="15px" stroke-linecap="butt" transform="matrix(1,0,0,1,60,276)" text-rendering="geometricPrecision" font-family="sans-serif" shape-rendering="geometricPrecision" stroke-miterlimit="1.45">
      <text x="513.0088" xml:space="preserve" y="213.8359" clip-path="url(#clipPath2)" stroke="none">Backend - configd</text>
      <rect x="263.5" y="197.334" clip-path="url(#clipPath2)" fill="none" width="385" rx="4" ry="4" height="116.666"/>
    </g>
    <g fill="url(#linearGradient1)" text-rendering="geometricPrecision" shape-rendering="geometricPrecision" transform="matrix(1,0,0,1,60,276)" stroke="url(#linearGradient1)">
      <path d="M506.5 234 L633.5 234 L633.5 299 L506.5 299 Z" stroke="none" clip-path="url(#clipPath2)"/>
    </g>
    <g text-rendering="geometricPrecision" stroke-miterlimit="1.45" shape-rendering="geometricPrecision" transform="matrix(1,0,0,1,60,276)" stroke-linecap="butt">
      <path fill="none" d="M506.5 234 L633.5 234 L633.5 299 L506.5 299 Z" clip-path="url(#clipPath2)"/>
      <text x="526.1367" xml:space="preserve" y="271.0352" clip-path="url(#clipPath2)" font-family="sans-serif" stroke="none">Service Control</text>
    </g>
    <g fill="url(#linearGradient2)" text-rendering="geometricPrecision" shape-rendering="geometricPrecision" transform="matrix(1,0,0,1,60,276)" stroke="url(#linearGradient2)">
      <path d="M296.5 234 L423.5 234 L423.5 299 L296.5 299 Z" stroke="none" clip-path="url(#clipPath2)"/>
    </g>
    <g text-rendering="geometricPrecision" stroke-miterlimit="1.45" shape-rendering="geometricPrecision" transform="matrix(1,0,0,1,60,276)" stroke-linecap="butt">
      <path fill="none" d="M296.5 234 L423.5 234 L423.5 299 L296.5 299 Z" clip-path="url(#clipPath2)"/>
      <text x="311.4346" xml:space="preserve" y="271.0352" clip-path="url(#clipPath2)" font-family="sans-serif" stroke="none">Template Engine</text>
    </g>
    <g text-rendering="geometricPrecision" stroke-miterlimit="1.45" stroke-width="2" shape-rendering="geometricPrecision" transform="matrix(1,0,0,1,60,276)" stroke-linecap="butt">
      <path fill="none" d="M506.5027 266.5 L432.4869 266.5" clip-path="url(#clipPath2)"/>
      <path d="M423.4869 266.5 L436.9869 272.125 L433.6119 266.5 L436.9869 260.875 Z" clip-path="url(#clipPath2)" stroke="none"/>
      <text x="453.7588" y="289.8866" clip-path="url(#clipPath2)" font-family="sans-serif" stroke="none" stroke-width="1" xml:space="preserve">Run</text>
    </g>
    <g fill="rgb(235,235,235)" text-rendering="geometricPrecision" shape-rendering="geometricPrecision" transform="matrix(1,0,0,1,60,276)" stroke="rgb(235,235,235)">
      <rect x="263.5" width="462" height="21.666" y="-78.2896" clip-path="url(#clipPath2)" stroke="none"/>
    </g>
    <g font-size="15px" stroke-linecap="butt" transform="matrix(1,0,0,1,60,276)" text-rendering="geometricPrecision" font-family="sans-serif" shape-rendering="geometricPrecision" stroke-miterlimit="1.45">
      <text x="658.0801" xml:space="preserve" y="-61.7876" clip-path="url(#clipPath2)" stroke="none">Frontend</text>
      <rect x="263.5" y="-78.2896" clip-path="url(#clipPath2)" fill="none" width="462" rx="4" ry="4" height="235.2896"/>
    </g>
    <g fill="url(#linearGradient3)" text-rendering="geometricPrecision" shape-rendering="geometricPrecision" transform="matrix(1,0,0,1,60,276)" stroke="url(#linearGradient3)">
      <path d="M296.5 68.3765 L423.5 68.3765 L423.5 133.3765 L296.5 133.3765 Z" stroke="none" clip-path="url(#clipPath2)"/>
    </g>
    <g text-rendering="geometricPrecision" stroke-miterlimit="1.45" shape-rendering="geometricPrecision" transform="matrix(1,0,0,1,60,276)" stroke-linecap="butt">
      <path fill="none" d="M296.5 68.3765 L423.5 68.3765 L423.5 133.3765 L296.5 133.3765 Z" clip-path="url(#clipPath2)"/>
      <text x="342.293" xml:space="preserve" y="98.3452" clip-path="url(#clipPath2)" font-family="sans-serif" stroke="none">Model</text>
      <text x="317.0537" xml:space="preserve" y="112.478" clip-path="url(#clipPath2)" font-family="sans-serif" stroke="none">(configuration)</text>
    </g>
    <g fill="url(#linearGradient4)" text-rendering="geometricPrecision" shape-rendering="geometricPrecision" transform="matrix(1,0,0,1,60,276)" stroke="url(#linearGradient4)">
      <path d="M506.5 68.3765 L633.5 68.3765 L633.5 133.3765 L506.5 133.3765 Z" stroke="none" clip-path="url(#clipPath2)"/>
    </g>
    <g text-rendering="geometricPrecision" stroke-miterlimit="1.45" shape-rendering="geometricPrecision" transform="matrix(1,0,0,1,60,276)" stroke-linecap="butt">
      <path fill="none" d="M506.5 68.3765 L633.5 68.3765 L633.5 133.3765 L506.5 133.3765 Z" clip-path="url(#clipPath2)"/>
      <text x="540.7881" xml:space="preserve" y="105.4116" clip-path="url(#clipPath2)" font-family="sans-serif" stroke="none">Controller</text>
    </g>
    <g fill="url(#linearGradient5)" text-rendering="geometricPrecision" shape-rendering="geometricPrecision" transform="matrix(1,0,0,1,60,276)" stroke="url(#linearGradient5)">
      <path d="M419.5 -41.6235 L546.5 -41.6235 L546.5 23.3765 L419.5 23.3765 Z" stroke="none" clip-path="url(#clipPath2)"/>
    </g>
    <g text-rendering="geometricPrecision" stroke-miterlimit="1.45" shape-rendering="geometricPrecision" transform="matrix(1,0,0,1,60,276)" stroke-linecap="butt">
      <path fill="none" d="M419.5 -41.6235 L546.5 -41.6235 L546.5 23.3765 L419.5 23.3765 Z" clip-path="url(#clipPath2)"/>
      <text x="469.377" xml:space="preserve" y="-11.6548" clip-path="url(#clipPath2)" font-family="sans-serif" stroke="none">View</text>
      <text x="465.7939" xml:space="preserve" y="2.478" clip-path="url(#clipPath2)" font-family="sans-serif" stroke="none">(html)</text>
    </g>
    <g fill="url(#linearGradient6)" text-rendering="geometricPrecision" shape-rendering="geometricPrecision" transform="matrix(1,0,0,1,60,276)" stroke="url(#linearGradient6)">
      <path d="M582 -41.6235 L709 -41.6235 L709 23.3765 L582 23.3765 Z" stroke="none" clip-path="url(#clipPath2)"/>
    </g>
    <g text-rendering="geometricPrecision" stroke-miterlimit="1.45" shape-rendering="geometricPrecision" transform="matrix(1,0,0,1,60,276)" stroke-linecap="butt">
      <path fill="none" d="M582 -41.6235 L709 -41.6235 L709 23.3765 L582 23.3765 Z" clip-path="url(#clipPath2)"/>
      <text x="631.877" xml:space="preserve" y="-11.6548" clip-path="url(#clipPath2)" font-family="sans-serif" stroke="none">View</text>
      <text x="618.0752" xml:space="preserve" y="2.478" clip-path="url(#clipPath2)" font-family="sans-serif" stroke="none">(Rest API)</text>
    </g>
    <g fill="url(#linearGradient7)" text-rendering="geometricPrecision" shape-rendering="geometricPrecision" transform="matrix(1,0,0,1,60,276)" stroke="url(#linearGradient7)">
      <path d="M86.5 234 L213.5 234 L213.5 299 L86.5 299 Z" stroke="none" clip-path="url(#clipPath2)"/>
    </g>
    <g text-rendering="geometricPrecision" stroke-miterlimit="1.45" shape-rendering="geometricPrecision" transform="matrix(1,0,0,1,60,276)" stroke-linecap="butt">
      <path fill="none" d="M86.5 234 L213.5 234 L213.5 299 L86.5 299 Z" clip-path="url(#clipPath2)"/>
      <text x="109.8779" xml:space="preserve" y="263.9688" clip-path="url(#clipPath2)" font-family="sans-serif" stroke="none">Configuration</text>
      <text x="135.041" xml:space="preserve" y="278.1016" clip-path="url(#clipPath2)" font-family="sans-serif" stroke="none">Store</text>
    </g>
    <g fill="url(#linearGradient8)" text-rendering="geometricPrecision" shape-rendering="geometricPrecision" transform="matrix(1,0,0,1,60,276)" stroke="url(#linearGradient8)">
      <path d="M-44.5 -116.3765 L41.5 -116.3765 L41.5 329 L-44.5 329 Z" stroke="none" clip-path="url(#clipPath2)"/>
    </g>
    <g text-rendering="geometricPrecision" stroke-miterlimit="1.45" shape-rendering="geometricPrecision" transform="matrix(1,0,0,1,60,276)" stroke-linecap="butt">
      <path fill="none" d="M-44.5 -116.3765 L41.5 -116.3765 L41.5 329 L-44.5 329 Z" clip-path="url(#clipPath2)"/>
      <text x="-38.4316" xml:space="preserve" y="110.8469" clip-path="url(#clipPath2)" font-family="sans-serif" stroke="none">Build System</text>
    </g>
    <g fill="url(#linearGradient9)" text-rendering="geometricPrecision" shape-rendering="geometricPrecision" transform="matrix(1,0,0,1,60,276)" stroke="url(#linearGradient9)">
      <path d="M-44.5 359 L740.5 359 L740.5 405 L-44.5 405 Z" stroke="none" clip-path="url(#clipPath2)"/>
    </g>
    <g text-rendering="geometricPrecision" stroke-miterlimit="1.45" shape-rendering="geometricPrecision" transform="matrix(1,0,0,1,60,276)" stroke-linecap="butt">
      <path fill="none" d="M-44.5 359 L740.5 359 L740.5 405 L-44.5 405 Z" clip-path="url(#clipPath2)"/>
      <text x="291.6855" xml:space="preserve" y="386.5352" clip-path="url(#clipPath2)" font-family="sans-serif" stroke="none">Free BSD with Ports</text>
    </g>
    <g fill="url(#linearGradient10)" text-rendering="geometricPrecision" shape-rendering="geometricPrecision" transform="matrix(1,0,0,1,60,276)" stroke="url(#linearGradient10)">
      <circle r="32.5" clip-path="url(#clipPath2)" cx="483" cy="-188.5" stroke="none"/>
    </g>
    <g text-rendering="geometricPrecision" stroke-miterlimit="1.45" shape-rendering="geometricPrecision" transform="matrix(1,0,0,1,60,276)" stroke-linecap="butt">
      <circle fill="none" r="32.5" clip-path="url(#clipPath2)" cx="483" cy="-188.5"/>
      <text x="469.9863" xml:space="preserve" y="-183.9648" clip-path="url(#clipPath2)" font-family="sans-serif" stroke="none">User</text>
    </g>
    <g fill="url(#linearGradient11)" text-rendering="geometricPrecision" shape-rendering="geometricPrecision" transform="matrix(1,0,0,1,60,276)" stroke="url(#linearGradient11)">
      <circle r="32.5" clip-path="url(#clipPath2)" cx="645.5" cy="-188.5" stroke="none"/>
    </g>
    <g text-rendering="geometricPrecision" stroke-miterlimit="1.45" shape-rendering="geometricPrecision" transform="matrix(1,0,0,1,60,276)" stroke-linecap="butt">
      <circle fill="none" r="32.5" clip-path="url(#clipPath2)" cx="645.5" cy="-188.5"/>
      <text x="621.4209" xml:space="preserve" y="-183.9648" clip-path="url(#clipPath2)" font-family="sans-serif" stroke="none">Machine</text>
    </g>
    <g fill="url(#linearGradient12)" text-rendering="geometricPrecision" shape-rendering="geometricPrecision" transform="matrix(1,0,0,1,60,276)" stroke="url(#linearGradient12)">
      <circle r="32.5" clip-path="url(#clipPath2)" cx="-1.5" cy="-188.5" stroke="none"/>
    </g>
    <g text-rendering="geometricPrecision" stroke-miterlimit="1.45" shape-rendering="geometricPrecision" transform="matrix(1,0,0,1,60,276)" stroke-linecap="butt">
      <circle fill="none" r="32.5" clip-path="url(#clipPath2)" cx="-1.5" cy="-188.5"/>
      <text x="-30.7793" xml:space="preserve" y="-183.9648" clip-path="url(#clipPath2)" font-family="sans-serif" stroke="none">Developer</text>
    </g>
    <g text-rendering="geometricPrecision" stroke-miterlimit="1.45" stroke-width="2" shape-rendering="geometricPrecision" transform="matrix(1,0,0,1,60,276)" stroke-linecap="butt">
      <path fill="none" d="M432.4973 100.8765 L497.5131 100.8765" clip-path="url(#clipPath2)"/>
      <path d="M423.4973 100.8765 L436.9973 106.5015 L433.6223 100.8765 L436.9973 95.2515 Z" clip-path="url(#clipPath2)" stroke="none"/>
      <path d="M506.5131 100.8765 L493.0131 95.2515 L496.3881 100.8765 L493.0131 106.5015 Z" clip-path="url(#clipPath2)" stroke="none"/>
      <path fill="none" d="M570 142.3986 L570 187.988" clip-path="url(#clipPath2)"/>
      <path d="M570 133.3986 L564.375 146.8986 L570 143.5236 L575.625 146.8986 Z" clip-path="url(#clipPath2)" stroke="none"/>
      <path d="M570 196.988 L575.625 183.488 L570 186.863 L564.375 183.488 Z" clip-path="url(#clipPath2)" stroke="none"/>
      <text x="581.785" y="187.8027" clip-path="url(#clipPath2)" font-family="sans-serif" stroke="none" stroke-width="1" xml:space="preserve">Commands</text>
      <path fill="none" d="M538.695 61.2955 L514.2851 30.4324" clip-path="url(#clipPath2)"/>
      <path d="M544.2781 68.3545 L540.3154 54.2766 L537.9971 60.4131 L531.4916 61.2554 Z" clip-path="url(#clipPath2)" stroke="none"/>
      <path d="M508.7021 23.3733 L512.6647 37.4513 L514.983 31.3147 L521.4885 30.4725 Z" clip-path="url(#clipPath2)" stroke="none"/>
      <path fill="none" d="M597.4149 60.9342 L618.1023 30.7937" clip-path="url(#clipPath2)"/>
      <path d="M592.3219 68.3545 L604.5991 60.4072 L598.0516 60.0066 L595.3237 54.0409 Z" clip-path="url(#clipPath2)" stroke="none"/>
      <path d="M623.1953 23.3733 L610.9181 31.3207 L617.4656 31.7212 L620.1935 37.687 Z" clip-path="url(#clipPath2)" stroke="none"/>
      <path fill="none" d="M287.5027 100.8765 L150 100.8765 L150 225.0303" clip-path="url(#clipPath2)"/>
      <path d="M296.5027 100.8765 L283.0027 95.2515 L286.3777 100.8765 L283.0027 106.5015 Z" clip-path="url(#clipPath2)" stroke="none"/>
      <path d="M150 234.0303 L155.625 220.5303 L150 223.9053 L144.375 220.5303 Z" clip-path="url(#clipPath2)" stroke="none"/>
      <text x="167.957" y="124.263" clip-path="url(#clipPath2)" font-family="sans-serif" stroke="none" stroke-width="1" xml:space="preserve">Edits</text>
      <path fill="none" d="M213.4973 266.5 L287.5131 266.5" clip-path="url(#clipPath2)"/>
      <path d="M296.5131 266.5 L283.0131 260.875 L286.3881 266.5 L283.0131 272.125 Z" clip-path="url(#clipPath2)" stroke="none"/>
      <text x="220.5" y="260.8996" clip-path="url(#clipPath2)" font-family="sans-serif" stroke="none" stroke-width="1" xml:space="preserve">Reads</text>
      <path fill="none" d="M570 307.9752 L570 349.9925" clip-path="url(#clipPath2)"/>
      <path d="M570 298.9752 L564.375 312.4752 L570 309.1002 L575.625 312.4752 Z" clip-path="url(#clipPath2)" stroke="none"/>
      <path d="M570 358.9925 L575.625 345.4925 L570 348.8675 L564.375 345.4925 Z" clip-path="url(#clipPath2)" stroke="none"/>
      <text x="581.785" y="349.4688" clip-path="url(#clipPath2)" font-family="sans-serif" stroke="none" stroke-width="1" xml:space="preserve">Start / Stop, Status</text>
      <path fill="none" d="M360 298.9818 L360 349.9723" clip-path="url(#clipPath2)"/>
      <path d="M360 358.9723 L365.625 345.4723 L360 348.8473 L354.375 345.4723 Z" clip-path="url(#clipPath2)" stroke="none"/>
      <text x="371.785" y="349.4688" clip-path="url(#clipPath2)" font-family="sans-serif" stroke="none" stroke-width="1" xml:space="preserve">Save configuration</text>
      <path fill="none" d="M-0.8234 328.996 L-0.7596 349.9919" clip-path="url(#clipPath2)"/>
      <path d="M-0.7322 358.9919 L4.8517 345.4749 L-0.763 348.867 L-6.3982 345.5091 Z" clip-path="url(#clipPath2)" stroke="none"/>
      <text x="-41.6342" y="318.5688" clip-path="url(#clipPath2)" font-family="sans-serif" stroke="none" stroke-width="1" xml:space="preserve">Build + Install</text>
      <path fill="none" stroke-dasharray="12,4" d="M621.5 -50.6321 L621.5 -141.5 L506.5 -141.5 L501.5633 -151.3735" clip-path="url(#clipPath2)"/>
      <path stroke-dasharray="12,4" d="M621.5 -41.6321 L627.125 -55.1321 L621.5 -51.7571 L615.875 -55.1321 Z" clip-path="url(#clipPath2)" stroke="none"/>
      <path stroke-dasharray="12,4" d="M497.5383 -159.4233 L498.5446 -144.833 L502.0664 -150.3672 L508.6069 -149.8641 Z" clip-path="url(#clipPath2)" stroke="none"/>
      <path fill="none" d="M483 -146.9617 L483 -50.6387" clip-path="url(#clipPath2)"/>
      <path d="M483 -155.9617 L477.375 -142.4617 L483 -145.8367 L488.625 -142.4617 Z" clip-path="url(#clipPath2)" stroke="none"/>
      <path d="M483 -41.6387 L488.625 -55.1387 L483 -51.7637 L477.375 -55.1387 Z" clip-path="url(#clipPath2)" stroke="none"/>
      <text x="494.785" y="-122.5476" clip-path="url(#clipPath2)" font-family="sans-serif" stroke="none" stroke-width="1" xml:space="preserve">Use</text>
      <path fill="none" d="M645.5 -146.9617 L645.5 -50.6387" clip-path="url(#clipPath2)"/>
      <path d="M645.5 -155.9617 L639.875 -142.4617 L645.5 -145.8367 L651.125 -142.4617 Z" clip-path="url(#clipPath2)" stroke="none"/>
      <path d="M645.5 -41.6387 L651.125 -55.1387 L645.5 -51.7637 L639.875 -55.1387 Z" clip-path="url(#clipPath2)" stroke="none"/>
      <text x="657.285" y="-121.7266" clip-path="url(#clipPath2)" font-family="sans-serif" stroke="none" stroke-width="1" xml:space="preserve">Use</text>
      <path fill="none" d="M-1.5 -156.0031 L-1.5 -125.3933" clip-path="url(#clipPath2)"/>
      <path d="M-1.5 -116.3933 L4.125 -129.8932 L-1.5 -126.5183 L-7.125 -129.8932 Z" clip-path="url(#clipPath2)" stroke="none"/>
      <text x="10.285" y="-128.8412" clip-path="url(#clipPath2)" font-family="sans-serif" stroke="none" stroke-width="1" xml:space="preserve">Uses</text>
      <path fill="none" stroke-dasharray="12,4" d="M56.5 -221.0298 L56.5 413.6051" clip-path="url(#clipPath2)"/>
    </g>
  </g>
</svg>
